<svg width="240" height="240" viewBox="0 0 240 240" fill="none" xmlns="http://www.w3.org/2000/svg">
<path d="M86.0642 143.76C85.8002 143.424 77.4362 143.016 72.4442 130.2C74.9762 120.972 81.8042 114.144 85.9202 109.128C90.3722 103.728 98.5801 95.412 110.124 95.04C112.884 100.248 122.952 106.332 139.356 109.02C113.136 119.496 100.8 130.956 84.0002 125.484C84.3842 139.2 86.0642 143.76 86.0642 143.76Z" fill="#3D9CFB"/>
<path d="M139.44 138.108C148.824 133.908 143.268 128.508 139.188 128.364C135.108 128.22 129.408 131.736 128.88 134.448C127.8 140.088 135.684 139.788 139.44 138.108Z" fill="#3D9CFB"/>
<path d="M180.132 114.276C177.396 114.42 168.492 118.5 168.492 118.5C170.82 123.72 169.968 130.14 169.968 130.14L170.352 143.436C170.352 143.436 169.968 172.476 170.16 180C170.352 187.524 170.844 184.212 168.96 191.928C165.468 192.72 160.62 194.772 158.556 196.536C156.492 198.3 152.796 203.568 150.636 207.192C148.659 210.617 145.647 213.327 142.032 214.932C136.536 217.224 61.5601 214.284 49.4401 215.208C45.6241 215.496 45.9241 218.532 46.7041 221.136C47.4841 223.74 51.9841 222.24 51.9841 222.24L134.412 222.348C141.84 222.348 146.532 222.048 151.524 218.628C156.516 215.208 159.54 206.112 163.152 203.028C164.049 202.137 165.208 201.558 166.46 201.376C167.711 201.195 168.987 201.421 170.1 202.02L169.8 217.404C169.8 217.404 170.388 222.204 174.012 223.044C177.636 223.884 177.6 215.4 177.6 215.4L176.868 135.708C176.868 135.708 176.376 127.104 178.14 125.448C179.904 123.792 182.724 123.612 184.848 120.792C186.972 117.972 184.68 114 180.132 114.276Z" fill="#3D9CFB"/>
<path d="M213.72 105.912C211.776 102.876 207.84 103.02 205.128 104.856C205.044 104.856 207.18 109.536 206.988 113.544C212.544 111.072 215.664 108.96 213.72 105.912Z" fill="#3D9CFB"/>
<path d="M147.84 80.3999C151.86 77.2679 155.964 78.7319 158.964 80.8679C165.06 77.3759 150.156 73.1159 146.064 78.0719C145.756 78.3075 145.553 78.656 145.501 79.0408C145.449 79.4256 145.553 79.8152 145.788 80.1239C146.024 80.4327 146.372 80.6352 146.757 80.6869C147.142 80.7387 147.531 80.6355 147.84 80.3999Z" fill="#001434"/>
<path d="M156.888 91.4041C155.592 93.0001 151.62 93.5161 148.848 91.8361C148.683 91.7368 148.501 91.671 148.311 91.6422C148.12 91.6135 147.927 91.6226 147.74 91.6688C147.553 91.7151 147.378 91.7976 147.223 91.9118C147.068 92.0259 146.937 92.1694 146.838 92.3341C146.739 92.4988 146.673 92.6814 146.644 92.8715C146.615 93.0617 146.624 93.2556 146.671 93.4422C146.717 93.6289 146.8 93.8046 146.914 93.9593C147.028 94.1141 147.171 94.2448 147.336 94.3441C156.36 99.7321 163.644 89.3281 156.888 91.4041Z" fill="#001434"/>
<path d="M214.536 103.968C212.364 101.124 209.124 101.568 205.8 102.984C201.12 94.4042 191.328 92.1842 181.728 94.7642C192.168 83.7122 187.392 67.9682 189.132 53.9642C195.396 49.8722 193.608 39.0842 188.244 35.0762C188.1 26.3762 184.392 22.4642 177.444 21.0962C176.82 19.3795 175.861 17.8038 174.624 16.4604C173.386 15.117 171.894 14.0326 170.234 13.2702C168.575 12.5078 166.78 12.0825 164.954 12.019C163.129 11.9555 161.309 12.255 159.6 12.9002C156.132 7.90816 147.852 6.09616 142.656 9.14416C137.856 4.16416 127.824 5.54416 123.528 10.3442C118.152 7.63216 110.148 10.0202 107.928 15.6842C106.415 15.2412 104.821 15.1512 103.268 15.421C101.715 15.6909 100.244 16.3133 98.9691 17.2405C97.6942 18.1677 96.6489 19.3749 95.9137 20.7694C95.1785 22.1639 94.7729 23.7084 94.7281 25.2842C90.1561 27.0482 85.4521 31.1882 86.3281 40.8842C85.4805 41.2412 84.6755 41.692 83.9281 42.2282C81.6832 41.0383 79.0824 40.7048 76.6099 41.2898C74.1374 41.8748 71.9618 43.3384 70.4881 45.4082C61.8361 44.5202 57.8281 50.1362 57.7441 57.4082C53.9881 60.7682 53.1721 64.9562 55.3441 69.8762C52.3801 73.7762 53.4961 80.6762 57.7441 83.3642C57.4569 85.5592 57.9779 87.7837 59.21 89.623C60.442 91.4622 62.3009 92.7905 64.4401 93.3602C64.4707 94.8908 64.8306 96.3968 65.4955 97.7757C66.1605 99.1547 67.1147 100.374 68.2933 101.351C69.4718 102.328 70.8471 103.04 72.3254 103.438C73.8037 103.835 75.3504 103.91 76.8601 103.656C77.4463 105.099 78.4279 106.347 79.6921 107.256C71.1001 119.724 65.2921 125.112 55.3201 137.652C53.3493 139.957 50.5715 141.421 47.5561 141.744C40.7401 142.788 37.9561 140.544 35.7481 144.348C23.6641 142.308 23.5321 156.348 25.2361 167.292C26.8201 177.504 25.8001 201.168 36.2521 203.988C41.2681 204.648 42.9481 197.58 48.2521 193.044C64.8601 191.688 73.2481 191.412 88.0681 187.824C84.8521 198.972 81.3721 204.024 84.4681 205.092C82.9201 209.52 83.9161 211.8 84.8161 213.648L71.1481 213.744C69.2761 204.672 60.6961 197.4 50.6161 196.596C50.4244 196.578 50.2309 196.598 50.047 196.656C49.8632 196.713 49.6926 196.806 49.5452 196.93C49.3977 197.054 49.2765 197.206 49.1884 197.378C49.1003 197.549 49.0472 197.736 49.0321 197.928C49.0057 198.318 49.1349 198.702 49.3913 198.997C49.6477 199.291 50.0105 199.472 50.4001 199.5C54.4683 199.752 58.3591 201.256 61.5387 203.806C64.7184 206.356 67.0313 209.828 68.1601 213.744H64.7401C59.1361 198.312 35.0041 203.256 35.8561 219.264C35.8561 235.272 59.3161 239.376 64.7521 224.064C90.7801 223.884 121.08 223.548 133.236 223.776C144.672 224.004 152.604 224.076 159.444 210.492C161.184 205.776 170.112 198.072 168.9 205.14C152.424 210.828 159.024 235.008 174.804 233.94C190.62 233.244 194.22 210.54 179.28 205.044C179.076 181.044 178.98 159.444 178.632 134.472C192.156 136.32 208.632 128.22 208.272 114.264C213.132 112.284 217.608 108.78 214.536 103.968ZM185.736 78.7682C180.228 113.892 112.536 116.688 104.664 82.3682C105.943 80.62 106.821 78.6116 107.236 76.4858C107.65 74.3599 107.592 72.1688 107.064 70.0682C107.699 69.7865 108.299 69.4321 108.852 69.0122C110.772 91.4882 152.76 85.8842 146.136 62.8562C146.232 52.3082 154.32 56.1242 156.732 63.0482C158.532 66.3962 154.884 68.0642 152.856 70.4882C152.668 70.6985 152.544 70.9584 152.499 71.237C152.454 71.5157 152.49 71.8014 152.602 72.0603C152.714 72.3192 152.899 72.5405 153.133 72.6978C153.367 72.8552 153.642 72.9421 153.924 72.9482C155.784 72.4082 157.008 70.2122 158.436 68.9882C165.24 77.1842 178.584 74.9042 185.34 67.6682C186.029 71.3232 186.162 75.0613 185.736 78.7562V78.7682ZM146.604 180.6C150.912 170.172 156.204 157.26 158.112 145.62C162.563 143.714 166.356 140.543 169.02 136.5C168.948 151.908 168.828 180.504 168.792 189.468C168.767 189.873 168.614 190.26 168.355 190.572C168.096 190.885 167.745 191.108 167.352 191.208C158.628 191.676 152.208 201.156 147.984 208.968C147.192 207.216 145.74 206.076 144.276 204.528C135.948 197.58 143.052 192.168 146.604 180.588V180.6ZM142.188 209.796C136.368 213.396 114.864 211.524 92.7361 211.608C88.1881 211.308 86.2561 210.696 87.2641 206.052C101.904 206.808 126.696 205.896 138.192 201.984C139.452 204.984 145.032 208.044 142.188 209.784V209.796ZM165.156 136.884C165.317 135.865 165.382 134.832 165.348 133.8C165.329 133.412 165.156 133.047 164.868 132.786C164.58 132.525 164.2 132.389 163.812 132.408C163.424 132.427 163.059 132.6 162.798 132.888C162.537 133.176 162.401 133.556 162.42 133.944C162.669 136.034 162.145 138.143 160.947 139.873C159.749 141.604 157.96 142.837 155.916 143.34C157.116 140.508 158.988 136.14 155.832 135.6C155.447 135.64 155.092 135.829 154.845 136.128C154.598 136.426 154.479 136.81 154.512 137.196C155.712 148.692 136.98 146.196 136.596 140.148C149.58 137.88 147.3 125.124 137.796 126.948C134.04 128.256 128.76 129.672 127.872 132.576C126.264 136.584 129.348 142.02 133.872 140.976C134.604 143.736 136.68 146.496 141.708 147.66C106.8 160.212 83.4121 158.124 85.6201 127.872C104.196 132.672 119.22 115.872 141.6 110.196C145.128 109.296 149.76 108.552 153.156 109.488C163.98 112.476 175.116 125.112 165.156 136.872V136.884ZM132.6 138.084C130.668 137.88 129.912 135.192 130.596 133.44C132.324 131.136 144.528 126 142.392 134.052C140.508 136.344 134.496 137.724 132.6 138.108V138.084ZM165.516 69.4322C191.232 68.8562 175.632 38.8442 157.584 56.0522C158.148 48.3242 171.504 46.8962 176.784 46.3202C180.227 51.7839 182.84 57.7288 184.536 63.9602C180.408 70.5842 168.708 73.5602 162.936 69.1682C163.784 69.3532 164.648 69.4498 165.516 69.4562V69.4322ZM159.912 63.3722C157.512 57.9962 162.06 54.8402 166.332 54.3482C166.789 58.3603 167.552 62.3318 168.612 66.2282C164.196 66.9962 160.956 66.2162 159.912 63.3962V63.3722ZM164.952 45.6122C159.132 47.2442 155.796 50.1962 154.752 55.2122C151.992 51.8162 145.272 53.3642 144.036 57.8282C137.832 47.8442 120.876 53.1602 113.052 58.4282C112.958 57.1719 112.7 55.9333 112.284 54.7442C114.833 54.6062 117.236 53.5133 119.015 51.6831C120.794 49.8529 121.818 47.4197 121.884 44.8682C125.856 44.2922 130.824 40.6082 131.808 36.4682C135.612 38.1362 142.248 37.8242 145.008 33.9602C148.752 37.4162 155.076 36.1322 158.496 32.4482C159.551 33.8845 161.072 34.9094 162.799 35.3472C164.527 35.7851 166.353 35.6087 167.964 34.8482C170.504 37.5335 172.823 40.4188 174.9 43.4762C171.534 43.9259 168.208 44.636 164.952 45.6002V45.6122ZM114 61.5362C124.944 52.3802 149.328 51.2642 142.608 72.6362C135.372 88.1402 102.444 78.6002 114 61.5362ZM186.3 59.5202C184.821 54.9788 182.858 50.6097 180.444 46.4882C184.968 46.9682 186.984 52.3442 186.252 59.5202H186.3ZM88.2721 43.3082C88.61 43.2085 88.9015 42.9922 89.0949 42.6978C89.2883 42.4033 89.3709 42.0498 89.3281 41.7002C88.3321 34.1882 90.6961 29.7002 96.5281 27.7802C96.8243 27.6877 97.0841 27.505 97.2713 27.2575C97.4585 27.0101 97.5637 26.7103 97.5721 26.4002C97.4944 25.1013 97.7359 23.8032 98.2756 22.6192C98.8153 21.4352 99.6367 20.4014 100.668 19.6082C103.668 16.5122 109.14 20.5802 110.268 17.8682C111.348 13.1522 118.032 10.4162 123.144 13.5122C125.364 14.3882 127.944 8.52016 133.788 8.95216C138.864 8.05216 141.192 13.5362 143.304 12.2642C147.336 9.22816 154.824 10.4282 157.776 15.4802C159.984 17.3282 164.976 13.1402 169.212 15.9842C170.63 16.6631 171.885 17.6411 172.89 18.8508C173.894 20.0605 174.625 21.4733 175.032 22.9922C175.12 23.2856 175.301 23.5424 175.548 23.7242C175.795 23.9059 176.094 24.0028 176.4 24.0002C178.792 24.082 181.053 25.1091 182.688 26.8562C185.556 29.0282 184.548 33.7562 185.94 37.0802C189.732 39.6842 192 46.5362 188.496 50.7242C187.068 45.8162 183.48 43.5242 178.464 43.4042C176.082 39.7805 173.383 36.3752 170.4 33.2282C172.428 32.0282 170.556 28.9322 168.744 30.7202C168.174 31.4419 167.423 31.9998 166.567 32.337C165.711 32.6743 164.781 32.7789 163.872 32.6402C160.824 33.0242 160.272 26.3522 157.524 29.0402C154.512 33.5282 148.548 34.7282 146.244 30.6962C146.138 30.4189 145.951 30.1804 145.707 30.012C145.462 29.8437 145.173 29.7536 144.876 29.7536C144.579 29.7536 144.29 29.8437 144.045 30.012C143.801 30.1804 143.614 30.4189 143.508 30.6962C139.32 39.5042 129.468 29.7962 129.168 34.1882C128.604 42.7802 118.824 40.8002 118.956 43.5242C119.388 55.0082 107.352 49.3562 108.696 53.9882C111.396 58.4762 110.352 66.4682 104.844 67.7282C104.639 67.7776 104.448 67.87 104.281 67.9991C104.115 68.1282 103.978 68.2912 103.879 68.4772C103.781 68.6632 103.722 68.8681 103.709 69.0782C103.695 69.2883 103.726 69.499 103.8 69.6962C105.6 74.1962 103.8 80.6282 100.356 82.2122C98.2321 83.4122 99.9121 85.8122 102.264 84.6122C104.268 86.8682 101.796 89.4122 99.4561 90.2042C98.2185 90.6039 97.0147 91.1015 95.8561 91.6922C91.5361 93.9242 86.1481 90.8522 86.4001 85.9922C86.4389 84.8542 86.8619 83.763 87.6001 82.8962C87.7659 82.6992 87.8772 82.4623 87.9231 82.2089C87.969 81.9556 87.9478 81.6947 87.8617 81.4521C87.7756 81.2095 87.6275 80.9936 87.4321 80.8259C87.2368 80.6582 87.001 80.5445 86.7481 80.4962C78.3481 78.0962 79.9321 68.8442 84.4441 62.8082C84.6397 62.5512 84.7457 62.2371 84.7457 61.9142C84.7457 61.5912 84.6397 61.2771 84.4441 61.0202C79.6681 54.6242 81.2041 45.4682 88.2721 43.3082ZM79.6441 102.612C79.1761 100.836 78.2521 100.332 77.4841 100.548C70.9801 102.336 67.0321 96.9482 67.0921 91.1882C63.1321 90.1442 59.7601 87.7202 60.6841 82.8722C60.7409 82.5786 60.7056 82.2747 60.5832 82.002C60.4608 81.7292 60.2572 81.5009 60.0001 81.3482C59.0624 80.8197 58.2648 80.0744 57.674 79.1746C57.0832 78.2748 56.7163 77.2467 56.6041 76.1762C56.4648 75.2884 56.5203 74.381 56.7669 73.5169C57.0135 72.6528 57.4452 71.8527 58.0321 71.1722C59.3401 67.5722 53.8201 64.3202 60.1921 59.1722C61.3921 56.5322 60.1921 52.6562 63.3961 50.1362C65.2561 48.4082 67.8121 47.8562 70.9561 48.4922C71.271 48.5572 71.5985 48.5159 71.8873 48.3747C72.1761 48.2335 72.41 48.0005 72.5521 47.7122C73.4223 46.1766 74.8101 45.0004 76.4676 44.3937C78.125 43.787 79.9442 43.7893 81.6001 44.4002C77.6401 49.3442 77.9041 56.4002 81.4681 61.8722C76.4761 68.7962 76.1641 79.3202 84.2281 82.8002C82.2001 87.3362 84.7801 94.2002 89.4481 96.2162C87.2179 98.0706 85.2267 100.195 83.5201 102.54C82.6321 103.92 80.1841 104.616 79.6441 102.612ZM87.1081 102.9C94.4041 94.0802 99.8281 92.6042 105.708 91.7882C111.576 101.448 121.308 107.496 133.788 109.14C118.524 114.384 100.98 129.132 85.7881 124.92C86.2137 121.208 87.0179 117.549 88.1881 114C88.3154 113.633 88.2915 113.229 88.1216 112.88C87.9517 112.53 87.6497 112.261 87.2821 112.134C86.9145 112.007 86.5114 112.031 86.1615 112.201C85.8115 112.371 85.5434 112.673 85.4161 113.04C82.6801 120.996 81.3481 132.708 83.4841 141.528C63.8521 125.088 73.4281 119.436 87.1081 102.9ZM40.9441 197.124C34.2721 208.956 31.4881 172.92 30.5401 166.212C27.9961 148.296 28.8001 146.664 35.3401 147.24C34.9081 162.444 38.8081 182.784 45.6241 191.46C43.8747 193.183 42.3065 195.081 40.9441 197.124ZM87.0001 201.288C88.3561 196.776 90.3001 191.832 91.5241 186.624C98.7241 183.78 109.896 176.556 113.256 172.5C114.864 170.556 112.5 169.296 110.784 170.628C108.12 172.704 106.812 173.916 104.172 175.884C87.5041 188.316 71.2321 187.884 48.2761 190.092C41.9641 182.508 37.4041 161.784 38.0881 147.132C38.1076 146.799 38.194 146.474 38.342 146.175C38.4901 145.876 38.6968 145.61 38.9499 145.392C39.203 145.175 39.4973 145.011 39.8152 144.91C40.133 144.809 40.468 144.773 40.8001 144.804C58.5121 146.268 58.4521 136.308 69.0001 126.54C71.0761 133.896 78.6001 141.84 85.3921 146.652C87.5951 149.733 90.4302 152.309 93.7081 154.206C96.9861 156.104 100.631 157.28 104.4 157.656C115.944 159.084 136.632 153.072 145.344 148.872C149.34 148.872 152.316 148.512 154.656 147.3C153.9 160.368 139.608 184.836 137.256 199.188C126.948 202.728 100.236 204.3 88.5241 203.064C87.3601 202.932 86.6521 202.452 87.0001 201.288ZM50.0041 231.036C43.6801 231.036 38.7841 224.724 38.7841 219.3C38.3281 211.116 43.7761 209.7 45.2281 212.616C45.9841 214.128 44.4241 215.508 44.9041 219.18C45.6241 224.784 51.0361 224.424 52.7281 226.38C54.4201 228.336 53.3161 231.036 50.0041 231.036ZM168 199.44C150.096 204.972 162.216 221.412 133.944 220.848C121.764 220.608 65.8201 222.444 48.3361 220.632C47.4601 218.928 47.1361 217.032 51.4081 216.816C79.8001 215.616 115.86 218.628 141.6 216.408C154.116 214.308 154.368 194.496 168 194.076C169.052 193.837 169.995 193.254 170.679 192.42C171.364 191.585 171.751 190.547 171.78 189.468C171.78 176.988 172.056 126.432 172.056 126.432C171.985 124.02 171.422 121.647 170.4 119.46C173.808 118.26 179.88 114.456 182.904 116.376C184.272 117.3 184.86 119.832 183.48 120.828C172.68 125.448 175.848 126.948 175.752 138.384C175.56 160.224 176.448 202.236 176.352 218.04C176.184 220.752 175.788 221.412 174.312 221.412C169.608 219.924 172.464 214.596 171.792 208.428C171.72 205.416 173.016 198.696 168 199.44ZM179.304 218.208C179.748 212.136 188.304 214.836 185.472 223.5C184.642 225.665 183.189 227.536 181.297 228.878C179.405 230.219 177.158 230.97 174.84 231.036C166.92 231.636 163.284 224.916 165.9 223.02C168.516 221.124 169.5 224.22 174.3 224.34C178.908 224.4 179.136 220.044 179.268 218.208H179.304ZM201.984 123.996C202.212 122.256 204.168 117.996 201.42 117.432C201.226 117.414 201.031 117.436 200.845 117.495C200.66 117.555 200.488 117.652 200.341 117.78C200.194 117.908 200.075 118.064 199.99 118.239C199.905 118.415 199.857 118.606 199.848 118.8C199.716 125.916 195.816 129.708 189.672 130.8C191.532 128.292 195.072 122.7 191.484 121.38C191.098 121.383 190.729 121.539 190.457 121.813C190.185 122.087 190.032 122.458 190.032 122.844C190.032 128.016 183.972 133.728 178.584 131.388C177.84 124.632 179.952 126.384 184.968 123.264C188.16 121.284 187.692 116.064 184.68 113.964C178.464 110.712 174.216 115.296 169.008 116.796C166.608 113.1 162.324 108.912 157.776 107.352C170.364 104.64 185.112 92.2322 196.26 97.9442C205.728 101.928 208.332 115.824 201.948 123.996H201.984ZM212.4 108.18C212.112 109.008 209.916 110.208 208.2 111.072C208.022 109.226 207.619 107.409 207 105.66C209.892 104.196 213.396 104.556 212.4 108.18Z" fill="#001434"/>
<path d="M160.584 84.9598C159.312 86.4358 154.332 86.0758 154.296 82.7398C154.231 82.3838 154.037 82.0641 153.751 81.8426C153.465 81.6211 153.107 81.5133 152.746 81.5402C152.385 81.567 152.047 81.7265 151.797 81.9879C151.547 82.2494 151.403 82.5942 151.392 82.9558C151.296 86.6518 146.376 87.3838 143.16 84.9118C135.384 84.6118 148.044 93.5998 153.024 86.7358C155.304 89.5678 161.184 89.2318 162.984 86.6398C163.206 86.3216 163.294 85.9278 163.226 85.5453C163.159 85.1627 162.942 84.8226 162.624 84.5998C162.305 84.377 161.912 84.2898 161.529 84.3573C161.146 84.4248 160.806 84.6416 160.584 84.9598Z" fill="#001434"/>
<path d="M127.548 77.3999C144.348 79.1519 147.036 55.1039 126.528 59.7119C114.06 61.7399 117.408 78.4319 127.548 77.3999ZM127.2 62.5679C127.776 62.4359 128.316 62.3159 128.832 62.2199C129.304 66.2718 130.456 70.2151 132.24 73.8839C121.32 77.9999 116.76 64.8599 127.2 62.5679Z" fill="#001434"/>
</svg>
