<svg width="536" height="536" viewBox="0 0 536 536" fill="none" xmlns="http://www.w3.org/2000/svg">
<rect width="536" height="536" rx="268" fill="#EFF4FF"/>
<path d="M381.35 185.5V388H326.35C315.3 388 306.35 379.05 306.35 368V291.5C306.35 281.15 310.55 271.8 317.35 265L257.85 324.5C256.7 325.65 255.8 326.9 255.15 328.25H255.1C252.2 333.9 253.15 341 257.85 345.75C263.6 351.5 272.95 351.6 278.85 346C282 353.15 282.45 362 278.7 370.35C273.8 381.35 262.35 388 250.25 388H198.6C186.9 388 175.2 383.5 166.3 374.6C154.45 362.75 150.45 345.95 154.4 330.8C156.35 323.2 160.35 315.95 166.3 310L253.35 223L264.35 212C257.55 218.8 248.2 223 237.85 223H181.35C170.3 223 161.35 214.05 161.35 203V148H343.85C364.55 148 381.35 164.8 381.35 185.5Z" fill="#2563EB"/>
</svg>
