<svg width="96" height="41" viewBox="0 0 96 41" fill="none" xmlns="http://www.w3.org/2000/svg">
<g clip-path="url(#clip0_2651_11617)">
<path d="M2.99708 33.554C2.42781 33.554 1.91854 33.4573 1.46781 33.2653C1.01708 33.0616 0.657076 32.7728 0.389271 32.3991C0.13171 32.0137 0.00292969 31.5491 0.00292969 31.0039C0.00292969 30.4587 0.13171 30.0044 0.389271 29.641C0.657076 29.2672 1.02293 28.9888 1.48391 28.8071C1.95659 28.6151 2.49366 28.5183 3.09366 28.5183H5.28293V28.0699C5.28293 27.6962 5.16439 27.3913 4.92878 27.1554C4.69317 26.9092 4.31708 26.7861 3.80195 26.7861C3.28683 26.7861 2.92098 26.9033 2.67512 27.1393C2.42781 27.3635 2.26683 27.6581 2.1922 28.0215L0.324881 27.3957C0.453661 26.9898 0.657076 26.6205 0.936588 26.2892C1.22634 25.9478 1.60683 25.6752 2.07951 25.4715C2.56244 25.2575 3.14781 25.1505 3.83415 25.1505C4.88634 25.1505 5.71756 25.4128 6.33073 25.936C6.94244 26.4592 7.24829 27.2184 7.24829 28.2135V31.1798C7.24829 31.5007 7.39903 31.6605 7.69903 31.6605H8.34293V33.3283H6.99073C6.59415 33.3283 6.26634 33.2316 6.00878 33.0396C5.75122 32.8476 5.62244 32.5911 5.62244 32.2702V32.254H5.31659C5.27415 32.383 5.17756 32.553 5.02683 32.767C4.8761 32.9707 4.64049 33.1524 4.31854 33.3122C3.99659 33.4719 3.5561 33.5525 2.99854 33.5525L2.99708 33.554ZM3.35122 31.9184C3.92049 31.9184 4.38147 31.7631 4.73561 31.4538C5.1 31.1329 5.28293 30.7108 5.28293 30.1876V30.0279H3.23854C2.86244 30.0279 2.5683 30.1085 2.35317 30.2682C2.13805 30.428 2.03122 30.6537 2.03122 30.9424C2.03122 31.2311 2.14391 31.4656 2.36927 31.6473C2.59464 31.829 2.92244 31.9199 3.35122 31.9199V31.9184ZM12.6776 33.554C11.6356 33.554 10.7824 33.3298 10.1166 32.8798C9.45073 32.4299 9.04829 31.7895 8.90927 30.9556L10.7766 30.4749C10.8512 30.8486 10.9756 31.1431 11.1468 31.3571C11.3298 31.5711 11.5493 31.7264 11.8068 31.8217C12.0746 31.9067 12.3644 31.9507 12.6761 31.9507C13.1488 31.9507 13.4971 31.8701 13.7224 31.7103C13.9478 31.5388 14.0605 31.3307 14.0605 31.0845C14.0605 30.8383 13.9537 30.6522 13.7385 30.5232C13.5234 30.384 13.181 30.2726 12.7083 30.1861L12.2576 30.1055C11.7 29.9986 11.1893 29.8549 10.7283 29.6732C10.2673 29.4812 9.89561 29.2189 9.61756 28.8877C9.33805 28.5564 9.19903 28.1285 9.19903 27.6053C9.19903 26.8139 9.48878 26.2101 10.0683 25.7939C10.6478 25.3659 11.4102 25.152 12.3541 25.152C13.2454 25.152 13.9859 25.3498 14.5756 25.7455C15.1654 26.1412 15.5532 26.66 15.7346 27.3005L13.8512 27.8779C13.7649 27.4719 13.5878 27.1832 13.32 27.0118C13.0624 26.8403 12.7405 26.7553 12.3541 26.7553C11.9678 26.7553 11.6722 26.8242 11.4688 26.9634C11.2654 27.0924 11.1629 27.2741 11.1629 27.5086C11.1629 27.7651 11.2698 27.957 11.4849 28.086C11.7 28.2033 11.9898 28.2941 12.3541 28.3586L12.8049 28.4392C13.4063 28.5462 13.9478 28.6898 14.4307 28.8715C14.9239 29.043 15.3117 29.2936 15.5898 29.6248C15.8795 29.9458 16.0244 30.384 16.0244 30.9394C16.0244 31.7733 15.7185 32.4196 15.1068 32.8798C14.5054 33.3283 13.6946 33.554 12.6761 33.554H12.6776ZM17.4029 36.5364V25.3762H19.399V26.3376H19.6888C19.8717 26.0269 20.1556 25.7543 20.542 25.5198C20.9283 25.2736 21.4815 25.1505 22.2 25.1505C22.8439 25.1505 23.4395 25.3103 23.9868 25.6312C24.5341 25.9419 24.9746 26.4006 25.3068 27.0103C25.639 27.62 25.8059 28.3571 25.8059 29.2233V29.4797C25.8059 30.3459 25.639 31.0831 25.3068 31.6927C24.9746 32.3024 24.5341 32.767 23.9868 33.0879C23.4395 33.3986 22.8439 33.5525 22.2 33.5525C21.7171 33.5525 21.3088 33.4939 20.9766 33.3767C20.6546 33.2697 20.3912 33.1304 20.1878 32.9604C19.9946 32.7787 19.8395 32.597 19.721 32.4152H19.4312V36.5364H17.4029ZM21.5898 31.7895C22.2234 31.7895 22.7444 31.5916 23.1512 31.1959C23.5698 30.79 23.779 30.2023 23.779 29.4314V29.2716C23.779 28.5022 23.5698 27.9189 23.1512 27.5232C22.7327 27.1173 22.2117 26.9136 21.5898 26.9136C20.9678 26.9136 20.4468 27.1173 20.0283 27.5232C19.6098 27.9189 19.4005 28.5008 19.4005 29.2716V29.4314C19.4005 30.2008 19.6098 30.7885 20.0283 31.1959C20.4468 31.5916 20.9678 31.7895 21.5898 31.7895ZM27.2693 33.3283V25.3747H29.2976V33.3283H27.2693ZM28.2834 24.4456C27.919 24.4456 27.6073 24.3283 27.3498 24.0924C27.1024 23.8579 26.9795 23.5472 26.9795 23.1618C26.9795 22.7763 27.1024 22.4671 27.3498 22.2311C27.6073 21.9966 27.919 21.8779 28.2834 21.8779C28.6478 21.8779 28.9698 21.9952 29.2171 22.2311C29.4644 22.4671 29.5873 22.7763 29.5873 23.1618C29.5873 23.5472 29.4644 23.8564 29.2171 24.0924C28.9698 24.3269 28.6595 24.4456 28.2834 24.4456ZM31.1429 33.3283V25.3747H33.139V26.2731H33.4288C33.5473 25.9522 33.7405 25.7177 34.0083 25.5682C34.2878 25.4187 34.6098 25.344 34.9741 25.344H35.94V27.1393H34.9419C34.4268 27.1393 34.0024 27.2785 33.6702 27.5555C33.338 27.8222 33.1712 28.2399 33.1712 28.8056V33.3268H31.1429V33.3283ZM37.1254 33.3283V25.3747H39.1537V33.3283H37.1254ZM41.0005 33.3283V25.3747H42.9966V26.4167H43.2863C43.4151 26.1383 43.6566 25.8774 44.0107 25.6312C44.3649 25.3747 44.9019 25.2458 45.6205 25.2458C46.2424 25.2458 46.7854 25.3894 47.2463 25.6781C47.719 25.9566 48.0834 26.3464 48.341 26.8491C48.5985 27.3415 48.7273 27.9175 48.7273 28.5814V33.3283H46.699V28.7426C46.699 28.1446 46.5483 27.6947 46.2483 27.3957C45.9585 27.0968 45.54 26.9473 44.9927 26.9473C44.3707 26.9473 43.8863 27.1554 43.5439 27.5731C43.2 27.979 43.0288 28.5506 43.0288 29.2892V33.3298H41.0005V33.3283ZM50.1337 29.3845V29.128C50.1337 28.2941 50.3005 27.5833 50.6327 26.9956C50.9649 26.3977 51.4054 25.9434 51.9527 25.6327C52.5102 25.3117 53.1176 25.152 53.7717 25.152C54.5019 25.152 55.0551 25.2809 55.4298 25.5374C55.8058 25.7939 56.0795 26.0606 56.2507 26.3391H56.5405V25.3777H58.5366V34.7411C58.5366 35.2863 58.3756 35.7186 58.0537 36.0396C57.7317 36.3708 57.3029 36.5364 56.7658 36.5364H51.42V34.7719H56.0576C56.3576 34.7719 56.5083 34.6121 56.5083 34.2912V32.2233H56.2185C56.1117 32.3947 55.961 32.5706 55.7678 32.7523C55.5746 32.9238 55.3171 33.0674 54.9951 33.1847C54.6732 33.3019 54.2649 33.3605 53.7717 33.3605C53.1176 33.3605 52.5102 33.2052 51.9527 32.8959C51.4054 32.575 50.9649 32.1207 50.6327 31.533C50.3005 30.935 50.1337 30.2184 50.1337 29.3845ZM54.3527 31.5975C54.9746 31.5975 55.4956 31.3996 55.9141 31.0039C56.3327 30.6082 56.5419 30.0528 56.5419 29.3361V29.1764C56.5419 28.4495 56.3327 27.894 55.9141 27.5086C55.5058 27.1129 54.9849 26.915 54.3527 26.915C53.7205 26.915 53.2098 27.1129 52.7912 27.5086C52.3727 27.894 52.1634 28.4495 52.1634 29.1764V29.3361C52.1634 30.0528 52.3727 30.6082 52.7912 31.0039C53.2098 31.3996 53.7307 31.5975 54.3527 31.5975Z" fill="#6591F3"/>
<path d="M58.536 15.4634V22.7047H57.1282C56.8048 22.7047 56.5428 22.4423 56.5428 22.1184V18.8708L53.5355 21.881L52.8287 22.5889C52.0048 23.414 50.8882 23.8771 49.7248 23.8771H38.1389C37.855 23.8771 37.6121 23.7848 37.4116 23.6016C37.2199 23.4199 37.1233 23.178 37.1233 22.8791C37.1233 22.5801 37.2199 22.3383 37.4116 22.1551C37.6121 21.9719 37.855 21.881 38.1389 21.881H49.7423C50.3687 21.881 50.9687 21.6319 51.4121 21.1878L55.1365 17.458H51.8921C51.5687 17.458 51.3067 17.1957 51.3067 16.8718V15.4634H58.5374H58.536Z" fill="#2563EB"/>
</g>
<path d="M62.8966 33L66.5766 19H71.1766L74.8566 33H72.1366L71.3766 29.92H66.3766L65.6166 33H62.8966ZM66.9966 27.48H70.7566L69.0566 20.66H68.6966L66.9966 27.48ZM76.5324 33V19H79.1724V33H76.5324Z" fill="#2563EB"/>
<path d="M85.851 3.65409L86.4388 7.60344L86.4895 7.94436L86.7813 8.12788L90.1436 10.2428L86.2316 10.9317L85.8922 10.9915L85.7165 11.2881L83.681 14.7232L83.0933 10.7738L83.0425 10.4329L82.7508 10.2494L79.3885 8.1344L83.3004 7.44549L83.6399 7.38571L83.8156 7.08918L85.851 3.65409Z" stroke="#2563EB" stroke-width="1.5"/>
<path d="M72.0435 6.19286L72.4613 7.3926L72.6124 7.82632L73.0398 7.99436L74.3539 8.51104L73.0398 9.02772L72.6124 9.19576L72.4613 9.62948L72.0435 10.8292L71.6256 9.62948L71.4746 9.19576L71.0472 9.02772L69.733 8.51104L71.0472 7.99436L71.4746 7.82632L71.6256 7.3926L72.0435 6.19286Z" stroke="#2563EB" stroke-width="2"/>
<path d="M90.9566 18.1709L91.3744 19.3706L91.5254 19.8043L91.9529 19.9724L93.267 20.4891L91.9529 21.0057L91.5254 21.1738L91.3744 21.6075L90.9566 22.8072L90.5387 21.6075L90.3877 21.1738L89.9603 21.0057L88.6461 20.4891L89.9603 19.9724L90.3877 19.8043L90.5387 19.3706L90.9566 18.1709Z" stroke="#2563EB" stroke-width="2"/>
<defs>
<clipPath id="clip0_2651_11617">
<rect width="58.5366" height="21.0732" fill="white" transform="translate(0 15.4634)"/>
</clipPath>
</defs>
</svg>
